<svg viewBox="0 0 640 400" data-background-color="#ffffff" preserveAspectRatio="xMidYMid meet" height="400" width="640" xmlns="http://www.w3.org/2000/svg" xmlns:xlink="http://www.w3.org/1999/xlink"><g id="tight-bounds" transform="matrix(1,0,0,1,122.24000000000001,145.04228996150778)"><svg viewBox="0 0 395.52 109.91542007698442" height="109.91542007698442" width="395.52"><g><svg viewBox="0 0 583.1228660031927 162.05045199543898" height="109.91542007698442" width="395.52"><g transform="matrix(1,0,0,1,0,22.39626362599772)"><svg viewBox="0 0 395.52 117.25792474344354" height="117.25792474344354" width="395.52"><g><svg viewBox="0 0 395.52 117.25792474344354" height="117.25792474344354" width="395.52"><g><svg viewBox="0 0 395.52 117.25792474344354" height="117.25792474344354" width="395.52"><g transform="matrix(1,0,0,1,0,0)"><svg width="395.52" viewBox="1.2500016689300537 -35.349998474121094 131.5500030517578 36" height="117.25792474344354" data-palette-color="#000000"><svg></svg><g class="undefined-text-0" data-fill-palette-color="primary" id="text-0"><path xmlns="http://www.w3.org/2000/svg" d="M19.1-23.55v0c0.2-1.867 1.517-2.8 3.95-2.8v0c1.3 0 2.267 0.1 2.9 0.3 0.633 0.2 1.077 0.55 1.33 1.05 0.247 0.5 0.397 0.94 0.45 1.32 0.047 0.387 0.07 0.963 0.07 1.73v0 17.5c0 0.767-0.023 1.34-0.07 1.72-0.053 0.387-0.197 0.83-0.43 1.33v0c-0.467 0.867-1.607 1.3-3.42 1.3-1.82 0-3.037-0.227-3.65-0.68-0.62-0.447-0.98-1.103-1.08-1.97v0c-1.233 1.767-3.29 2.65-6.17 2.65-2.887 0-5.563-1.317-8.03-3.95-2.467-2.633-3.7-5.693-3.7-9.18 0-3.48 1.243-6.53 3.73-9.15 2.48-2.613 5.203-3.92 8.17-3.92v0c1.133 0 2.167 0.2 3.1 0.6 0.933 0.4 1.583 0.773 1.95 1.12 0.367 0.353 0.667 0.697 0.9 1.03zM10-13.15c0 1.1 0.433 2.09 1.3 2.97 0.867 0.887 1.917 1.33 3.15 1.33 1.233 0 2.26-0.45 3.08-1.35 0.813-0.9 1.22-1.893 1.22-2.98 0-1.08-0.393-2.087-1.18-3.02-0.78-0.933-1.827-1.4-3.14-1.4-1.32 0-2.387 0.467-3.2 1.4-0.82 0.933-1.23 1.95-1.23 3.05zM49.7-26.05c0.633 0.2 1.16 0.54 1.58 1.02 0.413 0.487 0.62 1.263 0.62 2.33 0 1.067-0.317 2.233-0.95 3.5-0.633 1.267-1.55 1.9-2.75 1.9v0c-0.6 0-1.173-0.133-1.72-0.4-0.553-0.267-1.28-0.4-2.18-0.4-0.9 0-1.74 0.317-2.52 0.95-0.787 0.633-1.18 1.4-1.18 2.3v0 10.5c0 0.767-0.023 1.34-0.07 1.72-0.053 0.387-0.213 0.83-0.48 1.33v0c-0.5 0.867-1.8 1.3-3.9 1.3v0c-1.6 0-2.75-0.283-3.45-0.85v0c-0.533-0.467-0.833-1.183-0.9-2.15v0c0-0.333 0-0.817 0-1.45v0-17.55c0-0.767 0.027-1.343 0.08-1.73 0.047-0.38 0.187-0.803 0.42-1.27v0c0.467-0.9 1.767-1.35 3.9-1.35v0c2 0 3.25 0.383 3.75 1.15v0c0.367 0.533 0.55 1.083 0.55 1.65v0c0.167-0.233 0.41-0.517 0.73-0.85 0.313-0.333 0.987-0.783 2.02-1.35 1.033-0.567 1.943-0.85 2.73-0.85 0.78 0 1.437 0.04 1.97 0.12 0.533 0.087 1.117 0.23 1.75 0.43zM69.3-26.35v0c3.333 0 6.11 1.273 8.33 3.82 2.213 2.553 3.32 5.663 3.32 9.33v0 8.8c0 0.767-0.023 1.34-0.07 1.72-0.053 0.387-0.197 0.813-0.43 1.28v0c-0.467 0.9-1.767 1.35-3.9 1.35v0c-2.367 0-3.733-0.617-4.1-1.85v0c-0.2-0.567-0.3-1.417-0.3-2.55v0-8.8c0-1.367-0.39-2.433-1.17-3.2-0.787-0.767-1.837-1.15-3.15-1.15-1.32 0-2.387 0.4-3.2 1.2-0.82 0.8-1.23 1.85-1.23 3.15v0 8.85c0 0.767-0.023 1.34-0.07 1.72-0.053 0.387-0.213 0.813-0.48 1.28v0c-0.433 0.9-1.717 1.35-3.85 1.35v0c-2.1 0-3.383-0.45-3.85-1.35v0c-0.233-0.5-0.373-0.943-0.42-1.33-0.053-0.38-0.08-0.953-0.08-1.72v0-17.7c0-0.733 0.027-1.293 0.08-1.68 0.047-0.38 0.203-0.803 0.47-1.27v0c0.467-0.833 1.75-1.25 3.85-1.25v0c2.033 0 3.283 0.383 3.75 1.15v0c0.333 0.567 0.5 1.25 0.5 2.05v0c0.133-0.233 0.433-0.567 0.9-1 0.467-0.433 0.917-0.783 1.35-1.05v0c1.133-0.767 2.383-1.15 3.75-1.15zM110.35-16.32c0 2.047-0.507 3.56-1.52 4.54-1.02 0.987-2.147 1.48-3.38 1.48v0h-11.85c0 0.933 0.55 1.717 1.65 2.35 1.1 0.633 2.2 0.95 3.3 0.95v0c1.933 0 3.45-0.2 4.55-0.6v0l0.55-0.2c0.8-0.367 1.467-0.55 2-0.55v0c1.067 0 1.983 0.75 2.75 2.25v0c0.433 0.9 0.65 1.667 0.65 2.3v0c0 2.967-3.55 4.45-10.65 4.45v0c-2.467 0-4.657-0.427-6.57-1.28-1.92-0.847-3.413-1.97-4.48-3.37v0c-2.1-2.7-3.15-5.717-3.15-9.05v0c0-4.2 1.36-7.56 4.08-10.08 2.713-2.513 6.103-3.77 10.17-3.77v0c4.633 0 8.033 1.633 10.2 4.9v0c1.133 1.733 1.7 3.627 1.7 5.68zM93.5-14.85h6.3c1.267 0 1.9-0.533 1.9-1.6v0c0-0.767-0.29-1.383-0.87-1.85-0.587-0.467-1.42-0.7-2.5-0.7-1.087 0-2.163 0.44-3.23 1.32-1.067 0.887-1.6 1.83-1.6 2.83zM128.4-17.5v0l-3.25-0.2v6.9c0 0.9 0.143 1.55 0.43 1.95 0.28 0.4 0.813 0.6 1.6 0.6 0.78 0 1.38 0.023 1.8 0.07 0.413 0.053 0.853 0.213 1.32 0.48v0c0.767 0.433 1.15 1.55 1.15 3.35v0c0 2.1-0.467 3.383-1.4 3.85v0c-0.5 0.233-0.94 0.373-1.32 0.42-0.387 0.053-0.947 0.08-1.68 0.08v0c-3.467 0-6.1-0.783-7.9-2.35-1.8-1.567-2.7-4.217-2.7-7.95v0-7.4c-0.633 0.1-1.317 0.15-2.05 0.15-0.733 0-1.34-0.283-1.82-0.85-0.487-0.567-0.73-1.533-0.73-2.9 0-1.367 0.083-2.36 0.25-2.98 0.167-0.613 0.4-1.053 0.7-1.32v0c0.533-0.433 1.2-0.65 2-0.65v0l1.65 0.2v-5.15c0-0.767 0.027-1.333 0.08-1.7 0.047-0.367 0.203-0.767 0.47-1.2v0c0.433-0.833 1.717-1.25 3.85-1.25v0c2.267 0 3.617 0.617 4.05 1.85v0c0.167 0.533 0.25 1.383 0.25 2.55v0 4.9c1.467-0.133 2.577-0.2 3.33-0.2 0.747 0 1.313 0.023 1.7 0.07 0.38 0.053 0.82 0.213 1.32 0.48v0c0.867 0.433 1.3 1.717 1.3 3.85v0c0 2.1-0.45 3.383-1.35 3.85v0c-0.5 0.233-0.94 0.377-1.32 0.43-0.387 0.047-0.963 0.07-1.73 0.07z" fill="#000000" fill-rule="nonzero" stroke="none" stroke-width="1" stroke-linecap="butt" stroke-linejoin="miter" stroke-miterlimit="10" stroke-dasharray="" stroke-dashoffset="0" font-family="none" font-weight="none" font-size="none" text-anchor="none" style="mix-blend-mode: normal" data-fill-palette-color="primary" opacity="1"></path></g></svg></g></svg></g></svg></g></svg></g><g transform="matrix(1,0,0,1,421.0724140077537,0)"><svg viewBox="0 0 162.05045199543898 162.05045199543898" height="162.05045199543898" width="162.05045199543898"><g data-palette-color="#000000"><rect width="44.293790212086655" height="162.05045199543898" fill="#000000" stroke="transparent" data-fill-palette-color="accent" x="0" fill-opacity="1"></rect><rect width="44.293790212086655" height="162.05045199543898" fill="#000000" stroke="transparent" data-fill-palette-color="accent" x="54.016817331812994" fill-opacity="0.75"></rect><rect width="44.293790212086655" height="162.05045199543898" fill="#000000" stroke="transparent" data-fill-palette-color="accent" x="108.03363466362599" fill-opacity="0.5"></rect></g></svg></g></svg></g><defs></defs></svg><rect width="395.52" height="109.91542007698442" fill="none" stroke="none" visibility="hidden"></rect></g></svg>